Preview_Amstelvar-Italic-010-wght_400.00_wdth_50.00_opsz_8.00_GRAD_0.00_YOPQ_54.00_YTLC_500.00_YTUC_750.00_YTAS_767.00_YTDE_-240.00.ufo
<glyph name="asterisk" format="2">
  <advance width="1037"/>
  <unicode hex="002A"/>
  <outline>
    <contour>
      <point x="453.0" y="666.0" type="qcurve" smooth="yes"/>
      <point x="402.0" y="682.0"/>
      <point x="370.0" y="770.0"/>
      <point x="400.0" y="819.0" type="qcurve" smooth="yes"/>
      <point x="545.0" y="1064.0" type="line"/>
      <point x="544.0" y="1068.0" type="line"/>
      <point x="297.0" y="924.0" type="line" smooth="yes"/>
      <point x="259.0" y="900.0"/>
      <point x="167.0" y="932.0"/>
      <point x="152.0" y="992.0" type="qcurve" smooth="yes"/>
      <point x="138.0" y="1049.0"/>
      <point x="208.0" y="1122.0"/>
      <point x="250.0" y="1119.0" type="qcurve" smooth="yes"/>
      <point x="530.0" y="1113.0" type="line"/>
      <point x="530.0" y="1118.0" type="line"/>
      <point x="291.0" y="1271.0" type="line" smooth="yes"/>
      <point x="254.0" y="1291.0"/>
      <point x="233.0" y="1392.0"/>
      <point x="276.0" y="1434.0" type="qcurve" smooth="yes"/>
      <point x="317.0" y="1475.0"/>
      <point x="410.0" y="1452.0"/>
      <point x="432.0" y="1409.0" type="qcurve" smooth="yes"/>
      <point x="563.0" y="1153.0" type="line"/>
      <point x="570.0" y="1154.0" type="line"/>
      <point x="571.0" y="1442.0" type="line" smooth="yes"/>
      <point x="572.0" y="1501.0"/>
      <point x="654.0" y="1555.0"/>
      <point x="704.0" y="1542.0" type="qcurve" smooth="yes"/>
      <point x="756.0" y="1524.0"/>
      <point x="787.0" y="1435.0"/>
      <point x="757.0" y="1387.0" type="qcurve" smooth="yes"/>
      <point x="612.0" y="1142.0" type="line"/>
      <point x="615.0" y="1136.0" type="line"/>
      <point x="854.0" y="1282.0" type="line" smooth="yes"/>
      <point x="892.0" y="1307.0"/>
      <point x="985.0" y="1276.0"/>
      <point x="1000.0" y="1215.0" type="qcurve" smooth="yes"/>
      <point x="1014.0" y="1158.0"/>
      <point x="947.0" y="1085.0"/>
      <point x="902.0" y="1089.0" type="qcurve" smooth="yes"/>
      <point x="627.0" y="1093.0" type="line"/>
      <point x="626.0" y="1087.0" type="line"/>
      <point x="864.0" y="936.0" type="line" smooth="yes"/>
      <point x="904.0" y="914.0"/>
      <point x="926.0" y="813.0"/>
      <point x="882.0" y="772.0" type="qcurve" smooth="yes"/>
      <point x="840.0" y="730.0"/>
      <point x="744.0" y="755.0"/>
      <point x="725.0" y="796.0" type="qcurve" smooth="yes"/>
      <point x="592.0" y="1054.0" type="line"/>
      <point x="588.0" y="1052.0" type="line"/>
      <point x="584.0" y="764.0" type="line" smooth="yes"/>
      <point x="584.0" y="707.0"/>
      <point x="510.0" y="649.0"/>
    </contour>
  </outline>
</glyph>
<glyph name="comma" format="2">
  <advance width="477"/>
  <unicode hex="002C"/>
  <outline>
    <contour>
      <point x="46.0" y="-191.0" type="line"/>
      <point x="86.0" y="-163.0"/>
      <point x="201.0" y="-54.0"/>
      <point x="221.0" y="5.0" type="qcurve"/>
      <point x="150.0" y="5.0"/>
      <point x="79.0" y="76.0"/>
      <point x="79.0" y="132.0" type="qcurve" smooth="yes"/>
      <point x="79.0" y="187.0"/>
      <point x="168.0" y="269.0"/>
      <point x="230.0" y="269.0" type="qcurve" smooth="yes"/>
      <point x="288.0" y="269.0"/>
      <point x="370.0" y="179.0"/>
      <point x="370.0" y="98.0" type="qcurve" smooth="yes"/>
      <point x="370.0" y="0.0"/>
      <point x="198.0" y="-211.0"/>
      <point x="106.0" y="-267.0" type="qcurve"/>
    </contour>
  </outline>
</glyph>
<glyph name="one" format="2">
  <advance width="709"/>
  <unicode hex="0031"/>
  <outline>
    <contour>
      <point x="122.0" y="0.0" type="line"/>
      <point x="146.0" y="62.0"/>
      <point x="181.0" y="170.0"/>
      <point x="205.0" y="277.0" type="qcurve" smooth="yes"/>
      <point x="384.0" y="1034.0" type="line"/>
      <point x="425.0" y="1254.0" type="line"/>
      <point x="128.0" y="1093.0" type="line"/>
      <point x="77.0" y="1247.0" type="line"/>
      <point x="625.0" y="1535.0" type="line"/>
      <point x="687.0" y="1490.0" type="line"/>
      <point x="668.0" y="1443.0"/>
      <point x="633.0" y="1298.0"/>
      <point x="628.0" y="1275.0" type="qcurve" smooth="yes"/>
      <point x="507.0" y="720.0" type="line"/>
      <point x="418.0" y="133.0" type="line"/>
      <point x="222.0" y="-33.0" type="line"/>
    </contour>
  </outline>
</glyph>
<glyph name="four" format="2">
  <advance width="928"/>
  <unicode hex="0034"/>
  <outline>
    <contour>
      <point x="-21.0" y="465.0" type="line"/>
      <point x="-21.0" y="550.0" type="line"/>
      <point x="799.0" y="1556.0" type="line"/>
      <point x="882.0" y="1513.0" type="line"/>
      <point x="912.0" y="1473.0" type="line"/>
      <point x="729.0" y="513.0" type="line"/>
      <point x="723.0" y="482.0" type="line"/>
      <point x="674.0" y="186.0" type="line"/>
      <point x="674.0" y="28.0" type="line"/>
      <point x="452.0" y="-24.0" type="line"/>
      <point x="422.0" y="41.0" type="line"/>
      <point x="526.0" y="495.0" type="line"/>
      <point x="533.0" y="527.0" type="line"/>
      <point x="665.0" y="1196.0" type="line"/>
      <point x="194.0" y="600.0" type="line"/>
      <point x="198.0" y="590.0" type="line"/>
      <point x="643.0" y="583.0" type="line"/>
      <point x="875.0" y="590.0" type="line"/>
      <point x="858.0" y="464.0" type="line"/>
      <point x="608.0" y="456.0" type="line"/>
    </contour>
  </outline>
</glyph>
<glyph name="colon" format="2">
  <advance width="425"/>
  <unicode hex="003A"/>
  <outline>
    <contour>
      <point x="29.0" y="122.0" type="qcurve" smooth="yes"/>
      <point x="29.0" y="178.0"/>
      <point x="108.0" y="261.0"/>
      <point x="171.0" y="261.0" type="qcurve" smooth="yes"/>
      <point x="233.0" y="261.0"/>
      <point x="312.0" y="178.0"/>
      <point x="312.0" y="122.0" type="qcurve" smooth="yes"/>
      <point x="312.0" y="67.0"/>
      <point x="233.0" y="-16.0"/>
      <point x="171.0" y="-16.0" type="qcurve" smooth="yes"/>
      <point x="108.0" y="-16.0"/>
      <point x="29.0" y="67.0"/>
    </contour>
    <contour>
      <point x="162.0" y="881.0" type="qcurve" smooth="yes"/>
      <point x="162.0" y="937.0"/>
      <point x="241.0" y="1020.0"/>
      <point x="304.0" y="1020.0" type="qcurve" smooth="yes"/>
      <point x="366.0" y="1020.0"/>
      <point x="445.0" y="937.0"/>
      <point x="445.0" y="881.0" type="qcurve" smooth="yes"/>
      <point x="445.0" y="826.0"/>
      <point x="366.0" y="743.0"/>
      <point x="304.0" y="743.0" type="qcurve" smooth="yes"/>
      <point x="241.0" y="743.0"/>
      <point x="162.0" y="826.0"/>
    </contour>
  </outline>
</glyph>
<glyph name="greater" format="2">
  <advance width="500"/>
  <unicode hex="003E"/>
  <outline>
    <contour>
      <point x="491.0" y="562.0" type="qcurve"/>
      <point x="530.0" y="589.0"/>
      <point x="86.04477611940297" y="208.1940298507463"/>
      <point x="10.0" y="143.0" type="qcurve" smooth="yes"/>
      <point x="-48.0" y="91.0"/>
      <point x="-128.0" y="197.0"/>
      <point x="-79.0" y="251.0" type="qcurve" smooth="yes"/>
      <point x="-4.0" y="334.0"/>
      <point x="204.0" y="522.0"/>
      <point x="227.0" y="576.0" type="qcurve"/>
      <point x="208.0" y="648.0"/>
      <point x="81.0" y="864.0"/>
      <point x="42.0" y="942.0" type="qcurve"/>
      <point x="12.0" y="1000.0"/>
      <point x="115.0" y="1077.0"/>
      <point x="151.0" y="1022.0" type="qcurve" smooth="yes"/>
      <point x="192.0" y="963.0"/>
      <point x="527.0" y="534.0"/>
    </contour>
  </outline>
</glyph>
<glyph name="question" format="2">
  <advance width="1006"/>
  <unicode hex="003F"/>
  <outline>
    <contour>
      <point x="190.0" y="1241.0" type="qcurve" smooth="yes"/>
      <point x="207.0" y="1354.0"/>
      <point x="433.0" y="1524.0"/>
      <point x="599.0" y="1524.0" type="qcurve" smooth="yes"/>
      <point x="768.0" y="1524.0"/>
      <point x="963.0" y="1323.0"/>
      <point x="963.0" y="1184.0" type="qcurve" smooth="yes"/>
      <point x="963.0" y="1040.0"/>
      <point x="815.0" y="836.0"/>
      <point x="636.0" y="731.0" type="qcurve" smooth="yes"/>
      <point x="526.0" y="668.0"/>
      <point x="444.0" y="596.0"/>
      <point x="423.0" y="522.0" type="qcurve" smooth="yes"/>
      <point x="413.0" y="477.0" type="line"/>
      <point x="283.0" y="477.0" type="line"/>
      <point x="285.0" y="519.0" type="line" smooth="yes"/>
      <point x="290.0" y="612.0"/>
      <point x="410.0" y="754.0"/>
      <point x="519.0" y="834.0" type="qcurve" smooth="yes"/>
      <point x="650.0" y="930.0"/>
      <point x="742.0" y="1075.0"/>
      <point x="742.0" y="1183.0" type="qcurve" smooth="yes"/>
      <point x="742.0" y="1271.0"/>
      <point x="637.0" y="1375.0"/>
      <point x="567.0" y="1375.0" type="qcurve" smooth="yes"/>
      <point x="471.0" y="1375.0"/>
      <point x="365.0" y="1323.0"/>
      <point x="354.0" y="1264.0" type="qcurve" smooth="yes"/>
      <point x="348.0" y="1233.0"/>
      <point x="431.0" y="1166.0"/>
      <point x="429.0" y="1117.0" type="qcurve" smooth="yes"/>
      <point x="427.0" y="1073.0"/>
      <point x="377.0" y="1003.0"/>
      <point x="314.0" y="1003.0" type="qcurve" smooth="yes"/>
      <point x="251.0" y="1003.0"/>
      <point x="169.0" y="1117.0"/>
    </contour>
    <contour>
      <point x="164.0" y="121.0" type="qcurve" smooth="yes"/>
      <point x="164.0" y="174.0"/>
      <point x="242.0" y="258.0"/>
      <point x="305.0" y="258.0" type="qcurve" smooth="yes"/>
      <point x="368.0" y="258.0"/>
      <point x="447.0" y="174.0"/>
      <point x="447.0" y="121.0" type="qcurve" smooth="yes"/>
      <point x="447.0" y="65.0"/>
      <point x="368.0" y="-18.0"/>
      <point x="305.0" y="-18.0" type="qcurve" smooth="yes"/>
      <point x="242.0" y="-18.0"/>
      <point x="164.0" y="65.0"/>
    </contour>
  </outline>
</glyph>
<glyph name="A" format="2">
  <advance width="1173"/>
  <unicode hex="0041"/>
  <outline>
    <contour>
      <point x="-160.0" y="0.0" type="line"/>
      <point x="-130.0" y="133.0" type="line"/>
      <point x="-5.0" y="152.0" type="line"/>
      <point x="335.0" y="688.0" type="line"/>
      <point x="829.0" y="1531.0" type="line"/>
      <point x="1039.0" y="1513.0" type="line"/>
      <point x="1005.0" y="655.0" type="line"/>
      <point x="986.0" y="163.0" type="line"/>
      <point x="1118.0" y="143.0" type="line"/>
      <point x="1106.0" y="0.0" type="line"/>
      <point x="618.0" y="0.0" type="line"/>
      <point x="631.0" y="143.0" type="line"/>
      <point x="775.0" y="163.0" type="line"/>
      <point x="795.0" y="648.0" type="line"/>
      <point x="837.0" y="1287.0" type="line"/>
      <point x="839.0" y="1299.0" type="line"/>
      <point x="474.0" y="625.0" type="line"/>
      <point x="199.0" y="152.0" type="line"/>
      <point x="335.0" y="133.0" type="line"/>
      <point x="315.0" y="0.0" type="line"/>
    </contour>
    <contour>
      <point x="287.0" y="429.0" type="line"/>
      <point x="358.0" y="598.0" type="line"/>
      <point x="608.0" y="592.0" type="line"/>
      <point x="575.0" y="443.0" type="line"/>
    </contour>
    <contour>
      <point x="608.0" y="592.0" type="line"/>
      <point x="918.0" y="600.0" type="line"/>
      <point x="907.0" y="441.0" type="line"/>
      <point x="575.0" y="443.0" type="line"/>
    </contour>
  </outline>
</glyph>
<glyph name="F" format="2">
  <advance width="1103"/>
  <unicode hex="0046"/>
  <outline>
    <contour>
      <point x="-20.0" y="0.0" type="line"/>
      <point x="-9.0" y="135.0" type="line"/>
      <point x="131.0" y="155.0" type="line"/>
      <point x="253.0" y="796.0" type="line"/>
      <point x="352.0" y="1322.0" type="line"/>
      <point x="195.0" y="1344.0" type="line"/>
      <point x="218.0" y="1500.0" type="line"/>
      <point x="1134.0" y="1500.0" type="line"/>
      <point x="1096.0" y="1132.0" type="line"/>
      <point x="943.0" y="1132.0" type="line"/>
      <point x="925.0" y="1350.0" type="line"/>
      <point x="606.0" y="1338.0" type="line"/>
      <point x="571.0" y="1318.0" type="line"/>
      <point x="455.0" y="801.0" type="line"/>
      <point x="348.0" y="155.0" type="line"/>
      <point x="509.0" y="135.0" type="line"/>
      <point x="493.0" y="0.0" type="line"/>
    </contour>
    <contour>
      <point x="344.0" y="663.0" type="line"/>
      <point x="363.0" y="796.0" type="line"/>
      <point x="751.0" y="802.0" type="line"/>
      <point x="827.0" y="953.0" type="line"/>
      <point x="957.0" y="953.0" type="line"/>
      <point x="878.0" y="459.0" type="line"/>
      <point x="745.0" y="459.0" type="line"/>
      <point x="741.0" y="642.0" type="line"/>
    </contour>
  </outline>
</glyph>
<glyph name="I" format="2">
  <advance width="661"/>
  <unicode hex="0049"/>
  <outline>
    <contour>
      <point x="-37.0" y="0.0" type="line"/>
      <point x="-24.0" y="134.0" type="line"/>
      <point x="116.0" y="154.0" type="line"/>
      <point x="241.0" y="796.0" type="line"/>
      <point x="346.0" y="1322.0" type="line"/>
      <point x="202.0" y="1345.0" type="line"/>
      <point x="223.0" y="1500.0" type="line"/>
      <point x="730.0" y="1500.0" type="line"/>
      <point x="699.0" y="1345.0" type="line"/>
      <point x="560.0" y="1322.0" type="line"/>
      <point x="452.0" y="780.0" type="line"/>
      <point x="330.0" y="154.0" type="line"/>
      <point x="470.0" y="134.0" type="line"/>
      <point x="452.0" y="0.0" type="line"/>
    </contour>
  </outline>
</glyph>
<glyph name="N" format="2">
  <advance width="1283"/>
  <unicode hex="004E"/>
  <outline>
    <contour>
      <point x="-69.0" y="0.0" type="line"/>
      <point x="-47.0" y="152.0" type="line"/>
      <point x="100.0" y="159.0" type="line"/>
      <point x="214.0" y="754.0" type="line"/>
      <point x="324.0" y="1320.0" type="line"/>
      <point x="171.0" y="1341.0" type="line"/>
      <point x="212.0" y="1500.0" type="line"/>
      <point x="594.0" y="1500.0" type="line"/>
      <point x="764.0" y="840.0" type="line"/>
      <point x="893.0" y="358.0" type="line"/>
      <point x="972.0" y="773.0" type="line"/>
      <point x="1080.0" y="1320.0" type="line"/>
      <point x="934.0" y="1345.0" type="line"/>
      <point x="954.0" y="1500.0" type="line"/>
      <point x="1424.0" y="1500.0" type="line"/>
      <point x="1405.0" y="1344.0" type="line"/>
      <point x="1256.0" y="1319.0" type="line"/>
      <point x="1141.0" y="754.0" type="line"/>
      <point x="993.0" y="-4.0" type="line"/>
      <point x="780.0" y="-4.0" type="line"/>
      <point x="596.0" y="705.0" type="line"/>
      <point x="466.0" y="1193.0" type="line"/>
      <point x="387.0" y="754.0" type="line"/>
      <point x="276.0" y="162.0" type="line"/>
      <point x="420.0" y="149.0" type="line"/>
      <point x="395.0" y="0.0" type="line"/>
    </contour>
  </outline>
</glyph>
<glyph name="O" format="2">
  <advance width="1131"/>
  <unicode hex="004F"/>
  <outline>
    <contour>
      <point x="101.0" y="893.0" type="qcurve" smooth="yes"/>
      <point x="188.0" y="1205.0"/>
      <point x="554.0" y="1567.0"/>
      <point x="768.0" y="1525.0" type="qcurve" smooth="yes"/>
      <point x="969.0" y="1485.0"/>
      <point x="1140.0" y="1011.0"/>
      <point x="1049.0" y="679.0" type="qcurve" smooth="yes"/>
      <point x="950.0" y="313.0"/>
      <point x="567.0" y="-56.0"/>
      <point x="367.0" y="-31.0" type="qcurve" smooth="yes"/>
      <point x="150.0" y="-4.0"/>
      <point x="-5.0" y="507.0"/>
    </contour>
    <contour>
      <point x="323.0" y="830.0" type="qcurve" smooth="yes"/>
      <point x="258.0" y="558.0"/>
      <point x="275.0" y="162.0"/>
      <point x="389.0" y="132.0" type="qcurve" smooth="yes"/>
      <point x="490.0" y="104.0"/>
      <point x="743.0" y="409.0"/>
      <point x="822.0" y="708.0" type="qcurve" smooth="yes"/>
      <point x="899.0" y="1005.0"/>
      <point x="839.0" y="1322.0"/>
      <point x="722.0" y="1344.0" type="qcurve" smooth="yes"/>
      <point x="583.0" y="1369.0"/>
      <point x="397.0" y="1137.0"/>
    </contour>
  </outline>
</glyph>
<glyph name="R" format="2">
  <advance width="1098"/>
  <unicode hex="0052"/>
  <outline>
    <contour>
      <point x="-20.0" y="0.0" type="line"/>
      <point x="-1.0" y="142.0" type="line"/>
      <point x="132.0" y="157.0" type="line"/>
      <point x="253.0" y="796.0" type="line"/>
      <point x="353.0" y="1321.0" type="line"/>
      <point x="193.0" y="1344.0" type="line"/>
      <point x="214.0" y="1500.0" type="line"/>
      <point x="724.0" y="1500.0" type="line" smooth="yes"/>
      <point x="917.0" y="1500.0"/>
      <point x="1116.0" y="1275.0"/>
      <point x="1088.0" y="1091.0" type="qcurve" smooth="yes"/>
      <point x="1063.0" y="921.0"/>
      <point x="843.0" y="706.0"/>
      <point x="639.0" y="706.0" type="qcurve" smooth="yes"/>
      <point x="578.0" y="706.0"/>
      <point x="462.0" y="705.0"/>
      <point x="411.0" y="710.0" type="qcurve"/>
      <point x="428.0" y="845.0" type="line"/>
      <point x="532.0" y="845.0" type="line"/>
      <point x="590.0" y="845.0" type="line" smooth="yes"/>
      <point x="729.0" y="845.0"/>
      <point x="864.0" y="960.0"/>
      <point x="884.0" y="1100.0" type="qcurve" smooth="yes"/>
      <point x="901.0" y="1219.0"/>
      <point x="791.0" y="1339.0"/>
      <point x="667.0" y="1339.0" type="qcurve" smooth="yes"/>
      <point x="586.0" y="1339.0" type="line"/>
      <point x="556.0" y="1321.0" type="line"/>
      <point x="460.0" y="754.0" type="line"/>
      <point x="358.0" y="157.0" type="line"/>
      <point x="508.0" y="145.0" type="line"/>
      <point x="494.0" y="0.0" type="line"/>
    </contour>
    <contour>
      <point x="589.0" y="789.0" type="line"/>
      <point x="793.0" y="820.0" type="line"/>
      <point x="820.0" y="718.0" type="line" smooth="yes"/>
      <point x="880.0" y="489.0"/>
      <point x="1011.0" y="133.0"/>
      <point x="1131.0" y="137.0" type="qcurve"/>
      <point x="1094.0" y="0.0" type="line"/>
      <point x="1032.0" y="0.0" type="line" smooth="yes"/>
      <point x="842.0" y="0.0"/>
      <point x="671.0" y="410.0"/>
      <point x="611.0" y="681.0" type="qcurve" smooth="yes"/>
    </contour>
  </outline>
</glyph>
<glyph name="S" format="2">
  <advance width="885"/>
  <unicode hex="0053"/>
  <outline>
    <contour>
      <point x="-42.0" y="9.0" type="line"/>
      <point x="41.0" y="505.0" type="line"/>
      <point x="189.0" y="505.0" type="line"/>
      <point x="175.0" y="350.0" type="line" smooth="yes"/>
      <point x="166.0" y="267.0"/>
      <point x="258.0" y="139.0"/>
      <point x="358.0" y="139.0" type="qcurve" smooth="yes"/>
      <point x="442.0" y="139.0"/>
      <point x="567.0" y="251.0"/>
      <point x="574.0" y="367.0" type="qcurve" smooth="yes"/>
      <point x="579.0" y="468.0"/>
      <point x="491.0" y="640.0"/>
      <point x="384.0" y="736.0" type="qcurve" smooth="yes"/>
      <point x="295.0" y="818.0"/>
      <point x="161.0" y="1108.0"/>
      <point x="175.0" y="1230.0" type="qcurve" smooth="yes"/>
      <point x="191.0" y="1378.0"/>
      <point x="391.0" y="1533.0"/>
      <point x="552.0" y="1533.0" type="qcurve" smooth="yes"/>
      <point x="633.0" y="1533.0"/>
      <point x="745.0" y="1468.0"/>
      <point x="769.0" y="1438.0" type="qcurve"/>
      <point x="814.0" y="1534.0" type="line"/>
      <point x="930.0" y="1516.0" type="line"/>
      <point x="856.0" y="1054.0" type="line"/>
      <point x="710.0" y="1054.0" type="line"/>
      <point x="727.0" y="1223.0" type="line"/>
      <point x="730.0" y="1268.0"/>
      <point x="645.0" y="1366.0"/>
      <point x="563.0" y="1366.0" type="qcurve" smooth="yes"/>
      <point x="486.0" y="1366.0"/>
      <point x="389.0" y="1319.0"/>
      <point x="381.0" y="1226.0" type="qcurve" smooth="yes"/>
      <point x="373.0" y="1129.0"/>
      <point x="461.0" y="984.0"/>
      <point x="571.0" y="866.0" type="qcurve" smooth="yes"/>
      <point x="668.0" y="761.0"/>
      <point x="793.0" y="541.0"/>
      <point x="782.0" y="392.0" type="qcurve" smooth="yes"/>
      <point x="768.0" y="202.0"/>
      <point x="534.0" y="-23.0"/>
      <point x="378.0" y="-23.0" type="qcurve" smooth="yes"/>
      <point x="306.0" y="-23.0"/>
      <point x="194.0" y="16.0"/>
      <point x="148.0" y="64.0" type="qcurve"/>
      <point x="100.0" y="-22.0" type="line"/>
    </contour>
  </outline>
</glyph>
<glyph name="Y" format="2">
  <advance width="1199"/>
  <unicode hex="0059"/>
  <outline>
    <contour>
      <point x="134.0" y="1350.0" type="line"/>
      <point x="134.0" y="1500.0" type="line"/>
      <point x="585.0" y="1500.0" type="line"/>
      <point x="585.0" y="1350.0" type="line"/>
      <point x="456.0" y="1330.0" type="line"/>
      <point x="537.0" y="1055.0" type="line"/>
      <point x="623.0" y="768.0" type="line"/>
      <point x="818.0" y="1075.0" type="line"/>
      <point x="976.0" y="1321.0" type="line"/>
      <point x="852.0" y="1345.0" type="line"/>
      <point x="889.0" y="1500.0" type="line"/>
      <point x="1311.0" y="1500.0" type="line"/>
      <point x="1274.0" y="1345.0" type="line"/>
      <point x="1135.0" y="1321.0" type="line"/>
      <point x="936.0" y="1011.0" type="line"/>
      <point x="663.0" y="609.0" type="line"/>
      <point x="575.0" y="155.0" type="line"/>
      <point x="740.0" y="135.0" type="line"/>
      <point x="714.0" y="0.0" type="line"/>
      <point x="169.0" y="0.0" type="line"/>
      <point x="198.0" y="135.0" type="line"/>
      <point x="372.0" y="155.0" type="line"/>
      <point x="461.0" y="593.0" type="line"/>
      <point x="357.0" y="966.0" type="line"/>
      <point x="247.0" y="1326.0" type="line"/>
    </contour>
  </outline>
</glyph>
<glyph name="Z" format="2">
  <advance width="1000"/>
  <unicode hex="005A"/>
  <outline>
    <contour>
      <point x="-10.0" y="0.0" type="line"/>
      <point x="-18.0" y="102.0" type="line"/>
      <point x="418.0" y="789.0" type="line"/>
      <point x="783.0" y="1333.0" type="line"/>
      <point x="773.0" y="1349.0" type="line"/>
      <point x="373.0" y="1349.0" type="line"/>
      <point x="295.0" y="1101.0" type="line"/>
      <point x="135.0" y="1101.0" type="line"/>
      <point x="212.0" y="1500.0" type="line"/>
      <point x="1059.0" y="1500.0" type="line"/>
      <point x="1051.0" y="1389.0" type="line"/>
      <point x="603.0" y="699.0" type="line"/>
      <point x="264.0" y="168.0" type="line"/>
      <point x="274.0" y="152.0" type="line"/>
      <point x="681.0" y="152.0" type="line"/>
      <point x="791.0" y="397.0" type="line"/>
      <point x="962.0" y="397.0" type="line"/>
      <point x="818.0" y="0.0" type="line"/>
    </contour>
  </outline>
</glyph>
<glyph name="asciicircum" format="2">
  <advance width="1105"/>
  <unicode hex="005E"/>
  <outline>
    <contour>
      <point x="157.0" y="926.0" type="line"/>
      <point x="216.0" y="988.0"/>
      <point x="689.0" y="1524.0"/>
      <point x="689.0" y="1524.0" type="qcurve"/>
      <point x="689.0" y="1524.0"/>
      <point x="992.0" y="989.0"/>
      <point x="1029.0" y="927.0" type="qcurve"/>
      <point x="916.0" y="819.0" type="line"/>
      <point x="834.0" y="943.0"/>
      <point x="647.0" y="1234.0"/>
      <point x="647.0" y="1234.0" type="qcurve"/>
      <point x="647.0" y="1234.0"/>
      <point x="379.0" y="928.0"/>
      <point x="255.0" y="801.0" type="qcurve"/>
    </contour>
  </outline>
</glyph>
<glyph name="grave" format="2">
  <advance width="1024"/>
  <unicode hex="0060"/>
  <outline>
    <contour>
      <point x="548.0" y="1299.0" type="line" smooth="yes"/>
      <point x="517.0" y="1325.0"/>
      <point x="477.0" y="1368.0"/>
      <point x="477.0" y="1402.0" type="qcurve" smooth="yes"/>
      <point x="477.0" y="1445.0"/>
      <point x="540.0" y="1492.0"/>
      <point x="571.0" y="1492.0" type="qcurve" smooth="yes"/>
      <point x="612.0" y="1492.0"/>
      <point x="668.0" y="1433.0"/>
      <point x="688.0" y="1404.0" type="qcurve" smooth="yes"/>
      <point x="844.0" y="1185.0" type="line"/>
      <point x="769.0" y="1113.0" type="line"/>
    </contour>
  </outline>
</glyph>
<glyph name="a" format="2">
  <advance width="936"/>
  <unicode hex="0061"/>
  <outline>
    <contour>
      <point x="48.0" y="291.0" type="qcurve" smooth="yes"/>
      <point x="65.0" y="587.0"/>
      <point x="449.0" y="1050.0"/>
      <point x="617.0" y="1050.0" type="qcurve" smooth="yes"/>
      <point x="641.0" y="1050.0"/>
      <point x="703.0" y="1036.0"/>
      <point x="716.0" y="1024.0" type="qcurve"/>
      <point x="783.0" y="1101.0" type="line"/>
      <point x="835.0" y="1101.0" type="line"/>
      <point x="895.0" y="892.0" type="line"/>
      <point x="769.0" y="389.0" type="line"/>
      <point x="734.0" y="209.0" type="line"/>
      <point x="750.0" y="153.0"/>
      <point x="766.0" y="98.0"/>
      <point x="779.0" y="44.0" type="qcurve"/>
      <point x="594.0" y="-18.0" type="line"/>
      <point x="577.0" y="41.0"/>
      <point x="561.0" y="101.0"/>
      <point x="546.0" y="164.0" type="qcurve"/>
      <point x="443.0" y="52.0"/>
      <point x="296.0" y="-10.0"/>
      <point x="223.0" y="-10.0" type="qcurve" smooth="yes"/>
      <point x="130.0" y="-10.0"/>
      <point x="44.0" y="138.0"/>
    </contour>
    <contour>
      <point x="266.0" y="357.0" type="qcurve" smooth="yes"/>
      <point x="261.0" y="265.0"/>
      <point x="301.0" y="181.0"/>
      <point x="351.0" y="181.0" type="qcurve" smooth="yes"/>
      <point x="416.0" y="181.0"/>
      <point x="572.0" y="330.0"/>
      <point x="615.0" y="496.0" type="qcurve" smooth="yes"/>
      <point x="681.0" y="790.0" type="line"/>
      <point x="681.0" y="828.0"/>
      <point x="642.0" y="877.0"/>
      <point x="589.0" y="877.0" type="qcurve" smooth="yes"/>
      <point x="460.0" y="877.0"/>
      <point x="278.0" y="530.0"/>
    </contour>
  </outline>
</glyph>
<glyph name="b" format="2">
  <advance width="941"/>
  <unicode hex="0062"/>
  <outline>
    <contour>
      <point x="65.0" y="304.0" type="qcurve" smooth="yes"/>
      <point x="158.0" y="644.0" type="line"/>
      <point x="331.0" y="1402.0" type="line"/>
      <point x="190.0" y="1458.0" type="line"/>
      <point x="219.0" y="1546.0" type="line"/>
      <point x="476.0" y="1608.0" type="line"/>
      <point x="545.0" y="1544.0" type="line"/>
      <point x="339.0" y="631.0" type="line"/>
      <point x="251.0" y="213.0" type="line" smooth="yes"/>
      <point x="235.0" y="141.0"/>
      <point x="284.0" y="100.0"/>
      <point x="352.0" y="100.0" type="qcurve" smooth="yes"/>
      <point x="446.0" y="100.0"/>
      <point x="649.0" y="486.0"/>
      <point x="665.0" y="721.0" type="qcurve" smooth="yes"/>
      <point x="670.0" y="794.0"/>
      <point x="620.0" y="869.0"/>
      <point x="581.0" y="869.0" type="qcurve" smooth="yes"/>
      <point x="530.0" y="867.0"/>
      <point x="371.0" y="735.0"/>
      <point x="283.0" y="632.0" type="qcurve"/>
      <point x="265.0" y="738.0" type="line"/>
      <point x="402.0" y="909.0"/>
      <point x="589.0" y="1064.0"/>
      <point x="684.0" y="1064.0" type="qcurve" smooth="yes"/>
      <point x="765.0" y="1064.0"/>
      <point x="896.0" y="932.0"/>
      <point x="890.0" y="805.0" type="qcurve" smooth="yes"/>
      <point x="872.0" y="443.0"/>
      <point x="514.0" y="-36.0"/>
      <point x="314.0" y="-36.0" type="qcurve" smooth="yes"/>
      <point x="175.0" y="-36.0"/>
      <point x="19.0" y="139.0"/>
    </contour>
  </outline>
</glyph>
<glyph name="f" format="2">
  <advance width="549"/>
  <unicode hex="0066"/>
  <outline>
    <contour>
      <point x="-274.0" y="-432.0" type="line" smooth="yes"/>
      <point x="-248.0" y="-332.0" type="line"/>
      <point x="-178.0" y="-344.0" type="line" smooth="yes"/>
      <point x="-44.0" y="-358.0"/>
      <point x="55.0" y="-213.0"/>
      <point x="90.0" y="22.0" type="qcurve" smooth="yes"/>
      <point x="226.0" y="905.0" type="line"/>
      <point x="229.0" y="942.0" type="line"/>
      <point x="288.0" y="1269.0" type="line" smooth="yes"/>
      <point x="319.0" y="1443.0"/>
      <point x="483.0" y="1582.0"/>
      <point x="562.0" y="1582.0" type="qcurve" smooth="yes"/>
      <point x="652.0" y="1582.0"/>
      <point x="758.0" y="1500.0"/>
      <point x="758.0" y="1441.0" type="qcurve" smooth="yes"/>
      <point x="758.0" y="1392.0"/>
      <point x="704.0" y="1317.0"/>
      <point x="660.0" y="1317.0" type="qcurve" smooth="yes"/>
      <point x="660.0" y="1317.0"/>
      <point x="621.0" y="1345.0"/>
      <point x="599.0" y="1362.0" type="qcurve" smooth="yes"/>
      <point x="572.0" y="1383.0"/>
      <point x="533.0" y="1430.0"/>
      <point x="531.0" y="1430.0" type="qcurve" smooth="yes"/>
      <point x="525.0" y="1430.0"/>
      <point x="505.0" y="1356.0"/>
      <point x="487.0" y="1261.0" type="qcurve" smooth="yes"/>
      <point x="419.0" y="938.0" type="line"/>
      <point x="433.0" y="915.0" type="line"/>
      <point x="285.0" y="67.0" type="line" smooth="yes"/>
      <point x="233.0" y="-240.0"/>
      <point x="45.0" y="-491.0"/>
      <point x="-144.0" y="-491.0" type="qcurve"/>
    </contour>
    <contour>
      <point x="85.0" y="844.0" type="line"/>
      <point x="79.0" y="958.0" type="line"/>
      <point x="278.0" y="1000.0" type="line"/>
      <point x="594.0" y="982.0" type="line"/>
      <point x="556.0" y="850.0" type="line"/>
      <point x="355.0" y="845.0" type="line"/>
      <point x="298.0" y="827.0" type="line"/>
    </contour>
  </outline>
</glyph>
<glyph name="l" format="2">
  <advance width="490"/>
  <unicode hex="006C"/>
  <outline>
    <contour>
      <point x="70.0" y="-32.0" type="line"/>
      <point x="29.0" y="5.0" type="line"/>
      <point x="167.0" y="587.0" type="line"/>
      <point x="350.0" y="1404.0" type="line"/>
      <point x="178.0" y="1459.0" type="line"/>
      <point x="207.0" y="1549.0" type="line"/>
      <point x="478.0" y="1608.0" type="line"/>
      <point x="550.0" y="1542.0" type="line"/>
      <point x="337.0" y="568.0" type="line"/>
      <point x="247.0" y="166.0" type="line"/>
      <point x="433.0" y="168.0" type="line"/>
      <point x="431.0" y="44.0" type="line"/>
    </contour>
  </outline>
</glyph>
<glyph name="t" format="2">
  <advance width="564"/>
  <unicode hex="0074"/>
  <guideline x="160.0" y="0" angle="79.0" identifier="0teADGsfUO"/>
  <outline>
    <contour>
      <point x="119.0" y="-25.0" type="line"/>
      <point x="60.0" y="39.0" type="line"/>
      <point x="151.0" y="538.0" type="line"/>
      <point x="201.0" y="830.0" type="line"/>
      <point x="70.0" y="842.0" type="line"/>
      <point x="91.0" y="963.0" type="line"/>
      <point x="201.0" y="992.0"/>
      <point x="369.0" y="1186.0"/>
      <point x="408.0" y="1345.0" type="qcurve"/>
      <point x="485.0" y="1345.0" type="line"/>
      <point x="519.0" y="1294.0" type="line"/>
      <point x="330.0" y="510.0" type="line"/>
      <point x="271.0" y="155.0" type="line"/>
      <point x="496.0" y="167.0" type="line"/>
      <point x="496.0" y="46.0" type="line"/>
    </contour>
    <contour>
      <point x="275.0" y="849.0" type="line"/>
      <point x="328.0" y="998.0" type="line"/>
      <point x="623.0" y="998.0" type="line"/>
      <point x="615.0" y="875.0" type="line"/>
    </contour>
  </outline>
</glyph>
<glyph name="braceleft" format="2">
  <advance width="643"/>
  <unicode hex="007B"/>
  <outline>
    <contour>
      <point x="42.0" y="477.0" type="line"/>
      <point x="66.0" y="608.0" type="line"/>
      <point x="169.0" y="622.0" type="line" smooth="yes"/>
      <point x="226.0" y="630.0"/>
      <point x="283.0" y="660.0"/>
      <point x="293.0" y="716.0" type="qcurve" smooth="yes"/>
      <point x="316.0" y="834.0"/>
      <point x="242.0" y="1085.0"/>
      <point x="256.0" y="1194.0" type="qcurve" smooth="yes"/>
      <point x="277.0" y="1353.0"/>
      <point x="469.0" y="1510.0"/>
      <point x="625.0" y="1510.0" type="qcurve" smooth="yes"/>
      <point x="666.0" y="1510.0"/>
      <point x="731.0" y="1504.0"/>
      <point x="763.0" y="1500.0" type="qcurve"/>
      <point x="736.0" y="1349.0" type="line"/>
      <point x="684.0" y="1351.0"/>
      <point x="671.0" y="1351.0"/>
      <point x="622.0" y="1351.0" type="qcurve" smooth="yes"/>
      <point x="567.0" y="1351.0"/>
      <point x="480.0" y="1290.0"/>
      <point x="476.0" y="1216.0" type="qcurve" smooth="yes"/>
      <point x="464.0" y="1092.0"/>
      <point x="510.0" y="848.0"/>
      <point x="493.0" y="758.0" type="qcurve" smooth="yes"/>
      <point x="475.0" y="663.0"/>
      <point x="372.0" y="572.0"/>
      <point x="296.0" y="550.0" type="qcurve"/>
      <point x="375.0" y="514.0"/>
      <point x="430.0" y="384.0"/>
      <point x="416.0" y="314.0" type="qcurve" smooth="yes"/>
      <point x="399.0" y="223.0"/>
      <point x="194.0" y="-79.0"/>
      <point x="170.0" y="-200.0" type="qcurve" smooth="yes"/>
      <point x="155.0" y="-277.0"/>
      <point x="184.0" y="-333.0"/>
      <point x="261.0" y="-333.0" type="qcurve" smooth="yes"/>
      <point x="310.0" y="-333.0"/>
      <point x="348.0" y="-333.0"/>
      <point x="400.0" y="-331.0" type="qcurve"/>
      <point x="372.0" y="-484.0" type="line"/>
      <point x="334.0" y="-490.0"/>
      <point x="261.0" y="-495.0"/>
      <point x="210.0" y="-495.0" type="qcurve" smooth="yes"/>
      <point x="54.0" y="-495.0"/>
      <point x="-68.0" y="-337.0"/>
      <point x="-37.0" y="-178.0" type="qcurve" smooth="yes"/>
      <point x="-14.0" y="-60.0"/>
      <point x="201.0" y="246.0"/>
      <point x="224.0" y="364.0" type="qcurve"/>
      <point x="246.0" y="472.0" type="line"/>
    </contour>
  </outline>
</glyph>
<glyph name="currency" format="2">
  <advance width="1132"/>
  <unicode hex="00A4"/>
  <outline>
    <contour>
      <point x="148.0" y="809.0" type="qcurve" smooth="yes"/>
      <point x="148.0" y="1007.0"/>
      <point x="381.0" y="1287.0"/>
      <point x="571.0" y="1287.0" type="qcurve" smooth="yes"/>
      <point x="761.0" y="1287.0"/>
      <point x="997.0" y="1025.0"/>
      <point x="997.0" y="813.0" type="qcurve" smooth="yes"/>
      <point x="997.0" y="616.0"/>
      <point x="764.0" y="331.0"/>
      <point x="576.0" y="331.0" type="qcurve" smooth="yes"/>
      <point x="386.0" y="331.0"/>
      <point x="148.0" y="595.0"/>
    </contour>
    <contour>
      <point x="311.0" y="825.0" type="qcurve" smooth="yes"/>
      <point x="312.0" y="674.0"/>
      <point x="440.0" y="485.0"/>
      <point x="569.0" y="485.0" type="qcurve" smooth="yes"/>
      <point x="707.0" y="485.0"/>
      <point x="829.0" y="656.0"/>
      <point x="829.0" y="813.0" type="qcurve" smooth="yes"/>
      <point x="829.0" y="956.0"/>
      <point x="701.0" y="1127.0"/>
      <point x="571.0" y="1127.0" type="qcurve" smooth="yes"/>
      <point x="431.0" y="1127.0"/>
      <point x="310.0" y="974.0"/>
    </contour>
    <contour>
      <point x="285.0" y="1025.0" type="line"/>
      <point x="47.0" y="1288.0" type="line"/>
      <point x="160.0" y="1412.0" type="line"/>
      <point x="395.0" y="1146.0" type="line"/>
    </contour>
    <contour>
      <point x="879.0" y="1025.0" type="line"/>
      <point x="768.0" y="1146.0" type="line"/>
      <point x="1006.0" y="1410.0" type="line"/>
      <point x="1116.0" y="1289.0" type="line"/>
    </contour>
    <contour>
      <point x="285.0" y="574.0" type="line"/>
      <point x="395.0" y="453.0" type="line"/>
      <point x="149.0" y="181.0" type="line"/>
      <point x="39.0" y="302.0" type="line"/>
    </contour>
    <contour>
      <point x="880.0" y="574.0" type="line"/>
      <point x="1115.0" y="311.0" type="line"/>
      <point x="1006.0" y="190.0" type="line"/>
      <point x="770.0" y="453.0" type="line"/>
    </contour>
  </outline>
</glyph>
<glyph name="plusminus" format="2">
  <advance width="830"/>
  <unicode hex="00B1"/>
  <outline>
    <contour>
      <point x="56.0" y="585.0" type="line"/>
      <point x="56.0" y="739.0" type="line"/>
      <point x="756.0" y="739.0" type="line"/>
      <point x="756.0" y="585.0" type="line"/>
    </contour>
    <contour>
      <point x="326.0" y="302.0" type="line"/>
      <point x="326.0" y="1042.0" type="line"/>
      <point x="486.0" y="1042.0" type="line"/>
      <point x="486.0" y="302.0" type="line"/>
    </contour>
    <contour>
      <point x="56.0" y="46.0" type="line"/>
      <point x="56.0" y="200.0" type="line"/>
      <point x="756.0" y="200.0" type="line"/>
      <point x="756.0" y="46.0" type="line"/>
    </contour>
  </outline>
</glyph>
<glyph name="twosuperior" format="2">
  <advance width="634"/>
  <unicode hex="00B2"/>
  <outline>
    <contour>
      <point x="35.0" y="673.0" type="qcurve"/>
      <point x="-9.0" y="764.0" type="line"/>
      <point x="62.0" y="817.0" type="line"/>
      <point x="286.0" y="983.0"/>
      <point x="438.0" y="1216.0"/>
      <point x="438.0" y="1278.0" type="qcurve" smooth="yes"/>
      <point x="438.0" y="1325.0"/>
      <point x="404.0" y="1391.0"/>
      <point x="354.0" y="1391.0" type="qcurve" smooth="yes"/>
      <point x="304.0" y="1391.0"/>
      <point x="217.0" y="1353.0"/>
      <point x="172.0" y="1303.0" type="qcurve"/>
      <point x="111.0" y="1389.0" type="line"/>
      <point x="169.0" y="1464.0"/>
      <point x="319.0" y="1534.0"/>
      <point x="433.0" y="1534.0" type="qcurve" smooth="yes"/>
      <point x="534.0" y="1534.0"/>
      <point x="627.0" y="1421.0"/>
      <point x="627.0" y="1337.0" type="qcurve" smooth="yes"/>
      <point x="627.0" y="1188.0"/>
      <point x="328.0" y="871.0"/>
      <point x="235.0" y="825.0" type="qcurve"/>
      <point x="240.0" y="813.0" type="line"/>
      <point x="299.0" y="828.0"/>
      <point x="518.0" y="840.0"/>
      <point x="569.0" y="824.0" type="qcurve"/>
      <point x="521.0" y="655.0" type="line"/>
      <point x="404.0" y="686.0"/>
      <point x="148.0" y="709.0"/>
    </contour>
  </outline>
</glyph>
<glyph name="jdotless" format="2">
  <advance width="512"/>
  <unicode hex="0237"/>
  <outline>
    <contour>
      <point x="224.0" y="876.0" type="qcurve"/>
      <point x="67.0" y="874.0" type="line"/>
      <point x="91.0" y="987.0" type="line"/>
      <point x="389.0" y="1061.0" type="line"/>
      <point x="447.0" y="1028.0" type="line"/>
      <point x="459.0" y="936.0" type="line"/>
      <point x="396.0" y="716.0" type="line"/>
      <point x="271.0" y="94.0" type="line"/>
      <point x="197.0" y="-254.0"/>
      <point x="-19.0" y="-475.0"/>
      <point x="-229.0" y="-475.0" type="qcurve"/>
      <point x="-355.0" y="-416.0" type="line"/>
      <point x="-329.0" y="-309.0" type="line"/>
      <point x="-234.0" y="-318.0" type="line" smooth="yes"/>
      <point x="-93.0" y="-327.0"/>
      <point x="21.0" y="-171.0"/>
      <point x="76.0" y="83.0" type="qcurve" smooth="yes"/>
      <point x="121.0" y="291.0"/>
      <point x="204.0" y="716.0"/>
    </contour>
  </outline>
</glyph>
<glyph name="Germandbls" format="2">
  <advance width="1271"/>
  <unicode hex="1E9E"/>
  <outline>
    <contour>
      <point x="393.0" y="-309.0" type="line"/>
      <point x="374.0" y="-448.0" type="line"/>
      <point x="-115.0" y="-448.0" type="line"/>
      <point x="-98.0" y="-309.0" type="line"/>
      <point x="42.0" y="-289.0" type="line"/>
      <point x="247.0" y="760.0" type="line"/>
      <point x="319.0" y="1138.0" type="line" smooth="yes"/>
      <point x="352.0" y="1310.0"/>
      <point x="627.0" y="1548.0"/>
      <point x="806.0" y="1548.0" type="qcurve" smooth="yes"/>
      <point x="857.0" y="1548.0"/>
      <point x="909.0" y="1535.0"/>
      <point x="966.0" y="1515.0" type="qcurve" smooth="yes"/>
      <point x="1026.0" y="1500.0" type="line"/>
      <point x="1050.0" y="1337.0" type="line"/>
      <point x="980.0" y="1343.0"/>
      <point x="805.0" y="1249.0"/>
      <point x="801.0" y="1140.0" type="qcurve" smooth="yes"/>
      <point x="798.0" y="1074.0"/>
      <point x="867.0" y="948.0"/>
      <point x="955.0" y="876.0" type="qcurve" smooth="yes"/>
      <point x="1079.0" y="774.0"/>
      <point x="1227.0" y="559.0"/>
      <point x="1227.0" y="410.0" type="qcurve" smooth="yes"/>
      <point x="1227.0" y="211.0"/>
      <point x="962.0" y="-10.0"/>
      <point x="847.0" y="-10.0" type="qcurve" smooth="yes"/>
      <point x="717.0" y="-10.0"/>
      <point x="594.0" y="39.0"/>
      <point x="570.0" y="78.0" type="qcurve"/>
      <point x="551.0" y="-20.0" type="line"/>
      <point x="419.0" y="-2.0" type="line"/>
      <point x="482.0" y="475.0" type="line"/>
      <point x="630.0" y="475.0" type="line"/>
      <point x="622.0" y="356.0" type="line" smooth="yes"/>
      <point x="616.0" y="263.0"/>
      <point x="730.0" y="156.0"/>
      <point x="798.0" y="156.0" type="qcurve" smooth="yes"/>
      <point x="888.0" y="156.0"/>
      <point x="1014.0" y="278.0"/>
      <point x="1014.0" y="394.0" type="qcurve" smooth="yes"/>
      <point x="1014.0" y="486.0"/>
      <point x="921.0" y="629.0"/>
      <point x="807.0" y="726.0" type="qcurve" smooth="yes"/>
      <point x="720.0" y="800.0"/>
      <point x="603.0" y="967.0"/>
      <point x="608.0" y="1101.0" type="qcurve" smooth="yes"/>
      <point x="611.0" y="1188.0"/>
      <point x="755.0" y="1350.0"/>
      <point x="859.0" y="1374.0" type="qcurve"/>
      <point x="705.0" y="1386.0"/>
      <point x="541.0" y="1219.0"/>
      <point x="520.0" y="1096.0" type="qcurve" smooth="yes"/>
      <point x="463.0" y="760.0" type="line"/>
      <point x="262.0" y="-289.0" type="line"/>
    </contour>
  </outline>
</glyph>
<glyph name="horizontalbar" format="2">
  <advance width="950"/>
  <unicode hex="2015"/>
  <outline>
    <contour>
      <point x="408.0" y="710.0" type="line"/>
      <point x="116.0" y="710.0" type="line"/>
      <point x="151.0" y="855.0" type="line"/>
      <point x="435.0" y="855.0" type="line"/>
      <point x="767.0" y="855.0" type="line"/>
      <point x="736.0" y="710.0" type="line"/>
    </contour>
  </outline>
</glyph>
<glyph name="quotedblbase" format="2">
  <advance width="764"/>
  <unicode hex="201E"/>
  <outline>
    <contour>
      <point x="348.0" y="-208.0" type="line"/>
      <point x="388.0" y="-179.0"/>
      <point x="506.0" y="-72.0"/>
      <point x="527.0" y="-13.0" type="qcurve"/>
      <point x="454.0" y="-13.0"/>
      <point x="382.0" y="59.0"/>
      <point x="382.0" y="115.0" type="qcurve" smooth="yes"/>
      <point x="382.0" y="170.0"/>
      <point x="473.0" y="251.0"/>
      <point x="536.0" y="251.0" type="qcurve" smooth="yes"/>
      <point x="596.0" y="251.0"/>
      <point x="679.0" y="161.0"/>
      <point x="679.0" y="81.0" type="qcurve" smooth="yes"/>
      <point x="679.0" y="-17.0"/>
      <point x="502.0" y="-228.0"/>
      <point x="409.0" y="-283.0" type="qcurve"/>
    </contour>
    <contour>
      <point x="-52.0" y="-208.0" type="line"/>
      <point x="-12.0" y="-179.0"/>
      <point x="106.0" y="-72.0"/>
      <point x="127.0" y="-13.0" type="qcurve"/>
      <point x="54.0" y="-13.0"/>
      <point x="-18.0" y="59.0"/>
      <point x="-18.0" y="115.0" type="qcurve" smooth="yes"/>
      <point x="-18.0" y="170.0"/>
      <point x="73.0" y="251.0"/>
      <point x="136.0" y="251.0" type="qcurve" smooth="yes"/>
      <point x="196.0" y="251.0"/>
      <point x="279.0" y="161.0"/>
      <point x="279.0" y="81.0" type="qcurve" smooth="yes"/>
      <point x="279.0" y="-17.0"/>
      <point x="102.0" y="-228.0"/>
      <point x="9.0" y="-283.0" type="qcurve"/>
    </contour>
  </outline>
</glyph>
<glyph name="dagger" format="2">
  <advance width="822"/>
  <unicode hex="2020"/>
  <outline>
    <contour>
      <point x="211.0" y="-540.0" type="line"/>
      <point x="207.0" y="-58.0" type="line"/>
      <point x="338.0" y="550.0" type="line"/>
      <point x="390.0" y="830.0" type="line"/>
      <point x="466.0" y="1438.0" type="line"/>
      <point x="539.0" y="1503.0" type="line"/>
      <point x="649.0" y="1506.0" type="line"/>
      <point x="702.0" y="1438.0" type="line"/>
      <point x="550.0" y="830.0" type="line"/>
      <point x="498.0" y="550.0" type="line"/>
      <point x="413.0" y="-58.0" type="line"/>
      <point x="231.0" y="-540.0" type="line"/>
    </contour>
    <contour>
      <point x="136.0" y="857.0" type="line"/>
      <point x="139.0" y="1000.0" type="line"/>
      <point x="492.0" y="992.0" type="line"/>
      <point x="823.0" y="1000.0" type="line"/>
      <point x="820.0" y="857.0" type="line"/>
      <point x="489.0" y="861.0" type="line"/>
    </contour>
  </outline>
</glyph>
<glyph name="perthousand" format="2">
  <advance width="2102"/>
  <unicode hex="2030"/>
  <outline>
    <contour>
      <point x="95.0" y="1073.0" type="qcurve" smooth="yes"/>
      <point x="138.0" y="1277.0"/>
      <point x="351.0" y="1512.0"/>
      <point x="479.0" y="1511.0" type="qcurve" smooth="yes"/>
      <point x="606.0" y="1509.0"/>
      <point x="711.0" y="1274.0"/>
      <point x="666.0" y="1074.0" type="qcurve" smooth="yes"/>
      <point x="624.0" y="870.0"/>
      <point x="410.0" y="630.0"/>
      <point x="282.0" y="631.0" type="qcurve" smooth="yes"/>
      <point x="155.0" y="632.0"/>
      <point x="52.0" y="867.0"/>
    </contour>
    <contour>
      <point x="252.0" y="1086.0" type="qcurve" smooth="yes"/>
      <point x="222.0" y="942.0"/>
      <point x="241.0" y="764.0"/>
      <point x="309.0" y="764.0" type="qcurve" smooth="yes"/>
      <point x="382.0" y="763.0"/>
      <point x="477.0" y="921.0"/>
      <point x="510.0" y="1073.0" type="qcurve" smooth="yes"/>
      <point x="541.0" y="1211.0"/>
      <point x="516.0" y="1370.0"/>
      <point x="449.0" y="1371.0" type="qcurve" smooth="yes"/>
      <point x="374.0" y="1372.0"/>
      <point x="284.0" y="1231.0"/>
    </contour>
    <contour>
      <point x="270.0" y="29.0" type="line"/>
      <point x="1081.0" y="1533.0" type="line"/>
      <point x="1200.0" y="1453.0" type="line"/>
      <point x="389.0" y="-51.0" type="line"/>
    </contour>
    <contour>
      <point x="809.0" y="385.0" type="qcurve" smooth="yes"/>
      <point x="850.0" y="584.0"/>
      <point x="1069.0" y="844.0"/>
      <point x="1197.0" y="843.0" type="qcurve" smooth="yes"/>
      <point x="1324.0" y="841.0"/>
      <point x="1423.0" y="591.0"/>
      <point x="1380.0" y="386.0" type="qcurve" smooth="yes"/>
      <point x="1344.0" y="202.0"/>
      <point x="1128.0" y="-38.0"/>
      <point x="1000.0" y="-37.0" type="qcurve" smooth="yes"/>
      <point x="874.0" y="-36.0"/>
      <point x="770.0" y="199.0"/>
    </contour>
    <contour>
      <point x="966.0" y="398.0" type="qcurve" smooth="yes"/>
      <point x="940.0" y="274.0"/>
      <point x="959.0" y="97.0"/>
      <point x="1027.0" y="97.0" type="qcurve" smooth="yes"/>
      <point x="1100.0" y="96.0"/>
      <point x="1195.0" y="253.0"/>
      <point x="1224.0" y="385.0" type="qcurve" smooth="yes"/>
      <point x="1255.0" y="523.0"/>
      <point x="1234.0" y="701.0"/>
      <point x="1167.0" y="702.0" type="qcurve" smooth="yes"/>
      <point x="1093.0" y="703.0"/>
      <point x="1000.0" y="543.0"/>
    </contour>
    <contour>
      <point x="1461.0" y="385.0" type="qcurve" smooth="yes"/>
      <point x="1502.0" y="584.0"/>
      <point x="1721.0" y="844.0"/>
      <point x="1849.0" y="843.0" type="qcurve" smooth="yes"/>
      <point x="1976.0" y="841.0"/>
      <point x="2075.0" y="591.0"/>
      <point x="2032.0" y="386.0" type="qcurve" smooth="yes"/>
      <point x="1996.0" y="202.0"/>
      <point x="1780.0" y="-38.0"/>
      <point x="1652.0" y="-37.0" type="qcurve" smooth="yes"/>
      <point x="1526.0" y="-36.0"/>
      <point x="1422.0" y="199.0"/>
    </contour>
    <contour>
      <point x="1618.0" y="398.0" type="qcurve" smooth="yes"/>
      <point x="1592.0" y="274.0"/>
      <point x="1611.0" y="97.0"/>
      <point x="1679.0" y="97.0" type="qcurve" smooth="yes"/>
      <point x="1752.0" y="96.0"/>
      <point x="1847.0" y="253.0"/>
      <point x="1876.0" y="385.0" type="qcurve" smooth="yes"/>
      <point x="1907.0" y="523.0"/>
      <point x="1886.0" y="701.0"/>
      <point x="1819.0" y="702.0" type="qcurve" smooth="yes"/>
      <point x="1745.0" y="703.0"/>
      <point x="1652.0" y="543.0"/>
    </contour>
  </outline>
</glyph>
<glyph name="guarani" format="2">
  <advance width="1229"/>
  <unicode hex="20B2"/>
  <outline>
    <contour>
      <point x="346.0" y="-163.0" type="line"/>
      <point x="407.0" y="86.0" type="line"/>
      <point x="415.0" y="81.0" type="line"/>
      <point x="600.0" y="871.0" type="line"/>
      <point x="719.0" y="803.0" type="line"/>
      <point x="546.0" y="54.0" type="line"/>
      <point x="537.0" y="50.0" type="line"/>
      <point x="489.0" y="-150.0" type="line"/>
    </contour>
    <contour>
      <point x="757.0" y="1609.0" type="line"/>
      <point x="918.0" y="1609.0" type="line"/>
      <point x="875.0" y="1424.0" type="line"/>
      <point x="863.0" y="1428.0" type="line"/>
      <point x="719.0" y="803.0" type="line"/>
      <point x="599.0" y="871.0" type="line"/>
      <point x="732.0" y="1455.0" type="line"/>
      <point x="723.0" y="1460.0" type="line"/>
    </contour>
    <contour>
      <point x="115.0" y="849.0" type="qcurve" smooth="yes"/>
      <point x="202.0" y="1190.0"/>
      <point x="607.0" y="1553.0"/>
      <point x="846.0" y="1520.0" type="qcurve" smooth="yes"/>
      <point x="1024.0" y="1495.0"/>
      <point x="1208.0" y="1243.0"/>
      <point x="1197.0" y="1023.0" type="qcurve"/>
      <point x="1036.0" y="1023.0" type="line"/>
      <point x="1044.0" y="1192.0"/>
      <point x="973.0" y="1320.0"/>
      <point x="857.0" y="1348.0" type="qcurve" smooth="yes"/>
      <point x="707.0" y="1385.0"/>
      <point x="409.0" y="1132.0"/>
      <point x="335.0" y="829.0" type="qcurve" smooth="yes"/>
      <point x="265.0" y="544.0"/>
      <point x="343.0" y="176.0"/>
      <point x="521.0" y="137.0" type="qcurve" smooth="yes"/>
      <point x="643.0" y="108.0"/>
      <point x="814.0" y="201.0"/>
      <point x="865.0" y="248.0" type="qcurve"/>
      <point x="930.0" y="562.0" type="line"/>
      <point x="758.0" y="601.0" type="line"/>
      <point x="787.0" y="738.0" type="line"/>
      <point x="1141.0" y="729.0" type="line"/>
      <point x="1047.0" y="161.0" type="line"/>
      <point x="992.0" y="139.0" type="line"/>
      <point x="924.0" y="62.0"/>
      <point x="693.0" y="-44.0"/>
      <point x="533.0" y="-25.0" type="qcurve" smooth="yes"/>
      <point x="240.0" y="13.0"/>
      <point x="26.0" y="496.0"/>
    </contour>
  </outline>
</glyph>
<glyph name="cedi" format="2">
  <advance width="1139"/>
  <unicode hex="20B5"/>
  <outline>
    <contour>
      <point x="116.0" y="819.0" type="qcurve" smooth="yes"/>
      <point x="190.0" y="1137.0"/>
      <point x="596.0" y="1469.0"/>
      <point x="813.0" y="1434.0" type="qcurve" smooth="yes"/>
      <point x="1042.0" y="1394.0"/>
      <point x="1145.0" y="1122.0"/>
      <point x="1124.0" y="956.0" type="qcurve"/>
      <point x="956.0" y="956.0" type="line"/>
      <point x="958.0" y="1073.0"/>
      <point x="901.0" y="1256.0"/>
      <point x="801.0" y="1280.0" type="qcurve" smooth="yes"/>
      <point x="652.0" y="1315.0"/>
      <point x="383.0" y="1068.0"/>
      <point x="325.0" y="798.0" type="qcurve" smooth="yes"/>
      <point x="270.0" y="549.0"/>
      <point x="406.0" y="266.0"/>
      <point x="564.0" y="231.0" type="qcurve" smooth="yes"/>
      <point x="673.0" y="205.0"/>
      <point x="845.0" y="308.0"/>
      <point x="922.0" y="415.0" type="qcurve"/>
      <point x="941.0" y="412.0" type="line"/>
      <point x="1036.0" y="290.0" type="line"/>
      <point x="959.0" y="165.0"/>
      <point x="701.0" y="34.0"/>
      <point x="558.0" y="56.0" type="qcurve" smooth="yes"/>
      <point x="297.0" y="95.0"/>
      <point x="46.0" y="514.0"/>
    </contour>
    <contour>
      <point x="361.0" y="-97.0" type="line"/>
      <point x="413.0" y="111.0" type="line"/>
      <point x="426.0" y="106.0" type="line"/>
      <point x="605.0" y="871.0" type="line"/>
      <point x="715.0" y="803.0" type="line"/>
      <point x="548.0" y="79.0" type="line"/>
      <point x="563.0" y="75.0" type="line"/>
      <point x="524.0" y="-84.0" type="line"/>
    </contour>
    <contour>
      <point x="754.0" y="1585.0" type="line"/>
      <point x="915.0" y="1585.0" type="line"/>
      <point x="868.0" y="1388.0" type="line"/>
      <point x="852.0" y="1392.0" type="line"/>
      <point x="715.0" y="803.0" type="line"/>
      <point x="605.0" y="871.0" type="line"/>
      <point x="731.0" y="1419.0" type="line"/>
      <point x="716.0" y="1424.0" type="line"/>
    </contour>
  </outline>
</glyph>
<glyph name="trademark" format="2">
  <advance width="1738"/>
  <unicode hex="2122"/>
  <outline>
    <contour>
      <point x="107.0" y="1195.0" type="line"/>
      <point x="167.0" y="1500.0" type="line"/>
      <point x="864.0" y="1500.0" type="line"/>
      <point x="804.0" y="1195.0" type="line"/>
      <point x="694.0" y="1195.0" type="line"/>
      <point x="722.0" y="1379.0" type="line"/>
      <point x="606.0" y="1379.0" type="line"/>
      <point x="577.0" y="1359.0" type="line"/>
      <point x="505.0" y="1054.0" type="line"/>
      <point x="460.0" y="845.0" type="line"/>
      <point x="562.0" y="809.0" type="line"/>
      <point x="545.0" y="700.0" type="line"/>
      <point x="173.0" y="700.0" type="line"/>
      <point x="190.0" y="809.0" type="line"/>
      <point x="307.0" y="845.0" type="line"/>
      <point x="352.0" y="1054.0" type="line"/>
      <point x="411.0" y="1359.0" type="line"/>
      <point x="379.0" y="1379.0" type="line"/>
      <point x="265.0" y="1379.0" type="line"/>
      <point x="217.0" y="1195.0" type="line"/>
    </contour>
    <contour>
      <point x="762.0" y="702.0" type="line"/>
      <point x="783.0" y="805.0" type="line"/>
      <point x="889.0" y="840.0" type="line"/>
      <point x="933.0" y="1056.0" type="line"/>
      <point x="990.0" y="1358.0" type="line"/>
      <point x="899.0" y="1362.0" type="line"/>
      <point x="923.0" y="1500.0" type="line"/>
      <point x="1211.0" y="1500.0" type="line"/>
      <point x="1273.0" y="896.0" type="line"/>
      <point x="1587.0" y="1500.0" type="line"/>
      <point x="1869.0" y="1500.0" type="line"/>
      <point x="1845.0" y="1374.0" type="line"/>
      <point x="1746.0" y="1340.0" type="line"/>
      <point x="1689.0" y="1054.0" type="line"/>
      <point x="1648.0" y="838.0" type="line"/>
      <point x="1753.0" y="803.0" type="line"/>
      <point x="1733.0" y="700.0" type="line"/>
      <point x="1395.0" y="700.0" type="line"/>
      <point x="1415.0" y="803.0" type="line"/>
      <point x="1506.0" y="838.0" type="line"/>
      <point x="1549.0" y="1054.0" type="line"/>
      <point x="1602.0" y="1321.0" type="line"/>
      <point x="1278.0" y="692.0" type="line"/>
      <point x="1174.0" y="692.0" type="line"/>
      <point x="1102.0" y="1325.0" type="line"/>
      <point x="1047.0" y="1056.0" type="line"/>
      <point x="1007.0" y="840.0" type="line"/>
      <point x="1091.0" y="805.0" type="line"/>
      <point x="1070.0" y="702.0" type="line"/>
    </contour>
  </outline>
</glyph>
<glyph name="notequal" format="2">
  <advance width="830"/>
  <unicode hex="2260"/>
  <outline>
    <contour>
      <point x="85.0" y="381.0" type="line"/>
      <point x="85.0" y="532.0" type="line"/>
      <point x="399.0" y="525.0" type="line"/>
      <point x="737.0" y="532.0" type="line"/>
      <point x="737.0" y="381.0" type="line"/>
      <point x="419.0" y="385.0" type="line"/>
    </contour>
    <contour>
      <point x="85.0" y="710.0" type="line"/>
      <point x="85.0" y="861.0" type="line"/>
      <point x="379.0" y="856.0" type="line"/>
      <point x="737.0" y="861.0" type="line"/>
      <point x="737.0" y="710.0" type="line"/>
      <point x="419.0" y="717.0" type="line"/>
    </contour>
    <contour>
      <point x="164.0" y="202.0" type="line"/>
      <point x="531.0" y="1094.0" type="line"/>
      <point x="658.0" y="1061.0" type="line"/>
      <point x="291.0" y="169.0" type="line"/>
    </contour>
  </outline>
</glyph>
<glyph name="greaterequal" format="2">
  <advance width="830"/>
  <unicode hex="2265"/>
  <outline>
    <contour>
      <point x="26.0" y="36.0" type="line"/>
      <point x="26.0" y="190.0" type="line"/>
      <point x="726.0" y="190.0" type="line"/>
      <point x="726.0" y="36.0" type="line"/>
    </contour>
    <contour>
      <point x="113.0" y="406.0" type="qcurve" smooth="yes"/>
      <point x="256.0" y="516.0"/>
      <point x="473.0" y="657.0"/>
      <point x="518.0" y="690.0" type="qcurve"/>
      <point x="486.0" y="719.0"/>
      <point x="310.0" y="873.0"/>
      <point x="213.0" y="980.0" type="qcurve"/>
      <point x="164.0" y="1033.0"/>
      <point x="271.0" y="1134.0"/>
      <point x="329.0" y="1086.0" type="qcurve" smooth="yes"/>
      <point x="387.0" y="1038.0"/>
      <point x="794.0" y="684.0"/>
      <point x="794.0" y="684.0" type="qcurve"/>
      <point x="794.0" y="684.0"/>
      <point x="265.0" y="347.0"/>
      <point x="190.0" y="298.0" type="qcurve" smooth="yes"/>
      <point x="115.0" y="250.0"/>
      <point x="45.0" y="354.0"/>
    </contour>
  </outline>
</glyph>
<glyph name="dblgravecomb" format="2">
  <advance width="1024"/>
  <outline>
    <contour>
      <point x="237.0" y="1314.0" type="qcurve" smooth="yes"/>
      <point x="229.0" y="1352.0"/>
      <point x="265.0" y="1415.0"/>
      <point x="310.0" y="1422.0" type="qcurve" smooth="yes"/>
      <point x="346.0" y="1430.0"/>
      <point x="426.0" y="1395.0"/>
      <point x="460.0" y="1365.0" type="qcurve" smooth="yes"/>
      <point x="658.0" y="1178.0" type="line"/>
      <point x="604.0" y="1092.0" type="line"/>
      <point x="325.0" y="1224.0" type="line" smooth="yes"/>
      <point x="284.0" y="1242.0"/>
      <point x="246.0" y="1277.0"/>
    </contour>
    <contour>
      <point x="630.0" y="1322.0" type="qcurve" smooth="yes"/>
      <point x="622.0" y="1361.0"/>
      <point x="659.0" y="1423.0"/>
      <point x="702.0" y="1431.0" type="qcurve" smooth="yes"/>
      <point x="739.0" y="1440.0"/>
      <point x="813.0" y="1404.0"/>
      <point x="847.0" y="1375.0" type="qcurve" smooth="yes"/>
      <point x="1051.0" y="1188.0" type="line"/>
      <point x="997.0" y="1101.0" type="line"/>
      <point x="712.0" y="1234.0" type="line" smooth="yes"/>
      <point x="670.0" y="1251.0"/>
      <point x="639.0" y="1286.0"/>
    </contour>
  </outline>
</glyph>
<glyph name="dollar.rvrn2" format="2">
  <advance width="778"/>
  <outline>
    <contour>
      <point x="-88.0" y="233.0" type="qcurve"/>
      <point x="1.0" y="399.0" type="line"/>
      <point x="65.0" y="320.0"/>
      <point x="235.0" y="188.0"/>
      <point x="345.0" y="188.0" type="qcurve" smooth="yes"/>
      <point x="451.0" y="188.0"/>
      <point x="566.0" y="296.0"/>
      <point x="566.0" y="414.0" type="qcurve" smooth="yes"/>
      <point x="566.0" y="501.0"/>
      <point x="466.0" y="635.0"/>
      <point x="350.0" y="726.0" type="qcurve" smooth="yes"/>
      <point x="252.0" y="804.0"/>
      <point x="103.0" y="1008.0"/>
      <point x="105.0" y="1145.0" type="qcurve" smooth="yes"/>
      <point x="107.0" y="1316.0"/>
      <point x="315.0" y="1486.0"/>
      <point x="474.0" y="1486.0" type="qcurve" smooth="yes"/>
      <point x="582.0" y="1486.0"/>
      <point x="766.0" y="1394.0"/>
      <point x="841.0" y="1322.0" type="qcurve"/>
      <point x="752.0" y="1166.0" type="line"/>
      <point x="685.0" y="1242.0"/>
      <point x="544.0" y="1337.0"/>
      <point x="463.0" y="1337.0" type="qcurve" smooth="yes"/>
      <point x="356.0" y="1337.0"/>
      <point x="267.0" y="1264.0"/>
      <point x="265.0" y="1174.0" type="qcurve" smooth="yes"/>
      <point x="263.0" y="1087.0"/>
      <point x="373.0" y="978.0"/>
      <point x="489.0" y="877.0" type="qcurve" smooth="yes"/>
      <point x="602.0" y="779.0"/>
      <point x="751.0" y="561.0"/>
      <point x="750.0" y="419.0" type="qcurve" smooth="yes"/>
      <point x="749.0" y="251.0"/>
      <point x="508.0" y="25.0"/>
      <point x="344.0" y="25.0" type="qcurve" smooth="yes"/>
      <point x="199.0" y="25.0"/>
      <point x="-25.0" y="150.0"/>
    </contour>
    <contour>
      <point x="168.0" y="-131.0" type="line"/>
      <point x="205.0" y="99.0" type="line"/>
      <point x="259.0" y="99.0" type="line"/>
      <point x="388.0" y="815.0" type="line"/>
      <point x="428.0" y="775.0" type="line"/>
      <point x="306.0" y="99.0" type="line"/>
      <point x="358.0" y="99.0" type="line"/>
      <point x="320.0" y="-109.0" type="line"/>
    </contour>
    <contour>
      <point x="474.0" y="1597.0" type="line"/>
      <point x="624.0" y="1601.0" type="line"/>
      <point x="590.0" y="1389.0" type="line"/>
      <point x="544.0" y="1389.0" type="line"/>
      <point x="438.0" y="775.0" type="line"/>
      <point x="398.0" y="815.0" type="line"/>
      <point x="497.0" y="1389.0" type="line"/>
      <point x="438.0" y="1389.0" type="line"/>
    </contour>
  </outline>
</glyph>
<glyph name="hornU" format="2">
  <advance width="1185"/>
  <outline>
    <contour>
      <point x="133.0" y="1347.0" type="line"/>
      <point x="156.0" y="1500.0" type="line"/>
      <point x="664.0" y="1500.0" type="line"/>
      <point x="641.0" y="1347.0" type="line"/>
      <point x="480.0" y="1322.0" type="line"/>
      <point x="377.0" y="801.0" type="line" smooth="yes"/>
      <point x="332.0" y="572.0"/>
      <point x="301.0" y="402.0"/>
      <point x="301.0" y="339.0" type="qcurve" smooth="yes"/>
      <point x="301.0" y="230.0"/>
      <point x="407.0" y="169.0"/>
      <point x="506.0" y="169.0" type="qcurve" smooth="yes"/>
      <point x="639.0" y="169.0"/>
      <point x="795.0" y="333.0"/>
      <point x="826.0" y="497.0" type="qcurve" smooth="yes"/>
      <point x="885.0" y="801.0" type="line"/>
      <point x="984.0" y="1322.0" type="line"/>
      <point x="847.0" y="1347.0" type="line"/>
      <point x="870.0" y="1500.0" type="line"/>
      <point x="1183.0" y="1500.0" type="line"/>
      <point x="1048.0" y="801.0" type="line"/>
      <point x="987.0" y="480.0" type="line" smooth="yes"/>
      <point x="941.0" y="237.0"/>
      <point x="662.0" y="-25.0"/>
      <point x="460.0" y="-25.0" type="qcurve" smooth="yes"/>
      <point x="312.0" y="-25.0"/>
      <point x="79.0" y="133.0"/>
      <point x="79.0" y="301.0" type="qcurve" smooth="yes"/>
      <point x="79.0" y="371.0"/>
      <point x="113.0" y="585.0"/>
      <point x="157.0" y="801.0" type="qcurve" smooth="yes"/>
      <point x="266.0" y="1322.0" type="line"/>
    </contour>
  </outline>
</glyph>
<glyph name="hungarumlautcomb.case" format="2">
  <advance width="1024"/>
  <outline>
    <contour>
      <point x="808.0" y="1911.0" type="qcurve" smooth="yes"/>
      <point x="811.0" y="1875.0"/>
      <point x="753.0" y="1805.0"/>
      <point x="710.0" y="1773.0" type="qcurve" smooth="yes"/>
      <point x="469.0" y="1592.0" type="line"/>
      <point x="406.0" y="1657.0" type="line"/>
      <point x="580.0" y="1895.0" type="line" smooth="yes"/>
      <point x="613.0" y="1940.0"/>
      <point x="684.0" y="1990.0"/>
      <point x="720.0" y="1993.0" type="qcurve" smooth="yes"/>
      <point x="756.0" y="1996.0"/>
      <point x="804.0" y="1947.0"/>
    </contour>
    <contour>
      <point x="1146.0" y="1913.0" type="qcurve" smooth="yes"/>
      <point x="1149.0" y="1877.0"/>
      <point x="1091.0" y="1808.0"/>
      <point x="1049.0" y="1776.0" type="qcurve" smooth="yes"/>
      <point x="808.0" y="1594.0" type="line"/>
      <point x="745.0" y="1659.0" type="line"/>
      <point x="919.0" y="1898.0" type="line" smooth="yes"/>
      <point x="952.0" y="1943.0"/>
      <point x="1023.0" y="1992.0"/>
      <point x="1059.0" y="1995.0" type="qcurve" smooth="yes"/>
      <point x="1095.0" y="1998.0"/>
      <point x="1143.0" y="1949.0"/>
    </contour>
  </outline>
</glyph>
<glyph name="one.lc" format="2">
  <advance width="643"/>
  <outline>
    <contour>
      <point x="195.0" y="-2.0" type="line"/>
      <point x="217.0" y="54.0"/>
      <point x="248.0" y="155.0"/>
      <point x="275.0" y="253.0" type="qcurve" smooth="yes"/>
      <point x="349.0" y="516.0" type="line"/>
      <point x="404.0" y="773.0" type="line"/>
      <point x="148.0" y="639.0" type="line"/>
      <point x="103.0" y="778.0" type="line"/>
      <point x="596.0" y="1026.0" type="line"/>
      <point x="653.0" y="985.0" type="line"/>
      <point x="638.0" y="941.0"/>
      <point x="610.0" y="808.0"/>
      <point x="606.0" y="786.0" type="qcurve" smooth="yes"/>
      <point x="537.0" y="489.0" type="line"/>
      <point x="471.0" y="121.0" type="line"/>
      <point x="286.0" y="-33.0" type="line"/>
    </contour>
  </outline>
</glyph>
<glyph name="zero.tab" format="2">
  <advance width="860"/>
  <outline>
    <contour>
      <point x="106.0" y="877.0" type="qcurve" smooth="yes"/>
      <point x="182.0" y="1204.0"/>
      <point x="448.0" y="1537.0"/>
      <point x="611.0" y="1513.0" type="qcurve" smooth="yes"/>
      <point x="810.0" y="1488.0"/>
      <point x="863.0" y="1030.0"/>
      <point x="793.0" y="693.0" type="qcurve" smooth="yes"/>
      <point x="721.0" y="359.0"/>
      <point x="435.0" y="-32.0"/>
      <point x="265.0" y="-10.0" type="qcurve" smooth="yes"/>
      <point x="69.0" y="13.0"/>
      <point x="16.0" y="487.0"/>
    </contour>
    <contour>
      <point x="346.0" y="838.0" type="qcurve" smooth="yes"/>
      <point x="289.0" y="587.0"/>
      <point x="216.0" y="156.0"/>
      <point x="294.0" y="138.0" type="qcurve" smooth="yes"/>
      <point x="385.0" y="118.0"/>
      <point x="484.0" y="408.0"/>
      <point x="551.0" y="721.0" type="qcurve" smooth="yes"/>
      <point x="613.0" y="1007.0"/>
      <point x="665.0" y="1342.0"/>
      <point x="583.0" y="1359.0" type="qcurve" smooth="yes"/>
      <point x="499.0" y="1377.0"/>
      <point x="414.0" y="1146.0"/>
    </contour>
  </outline>
</glyph>
